<svg width="2847" height="2800" viewBox="0 0 2847 2800" fill="none" xmlns="http://www.w3.org/2000/svg">
<g clip-path="url(#clip0_270_104)">
<path opacity="0.3" d="M2474.97 2393.95C2402.05 2469.11 2336.8 2513.3 2286.85 2546.65C1799.65 2871.96 1242.73 2778.2 1070.54 2746.15C792.74 2694.45 558.24 2657.97 356.76 2475.94C-101.06 2062.32 -78.7903 1199.46 271.04 664.97C312.52 601.59 661.82 83.8197 1219.95 10.8597C1233.6 9.07966 1243.79 8.05966 1252.71 7.10966C1339.05 -2.03034 1874.09 -50.2803 2310.36 315.23C2372.81 367.55 2473.31 461.92 2566.51 605.86C2907.28 1132.15 2908.36 1947.25 2474.98 2393.95H2474.97Z" fill="#7CDED5"/>
<path d="M1334.29 1330.88C1345.41 1148.65 1295.74 980.69 1207.15 858.88C1127.96 749.99 1092.84 614.67 1111.86 481.51C1113.86 467.51 1115.32 453.26 1116.2 438.8C1129.57 219.64 1006.13 33.7898 840.49 23.6798C674.84 13.5698 529.72 183.04 516.35 402.2C513.61 447.01 516.61 490.43 524.51 531.22C549.74 661.42 526.99 797 456 909.09C392.56 1009.27 351.29 1133.78 342.95 1270.39C330.52 1474.15 394.09 1660.09 503.08 1783.6C544.31 1830.32 576.92 1884.28 598.66 1942.61C634.79 2039.55 711.82 2108.45 804.82 2114.13C905.14 2120.25 995.96 2051.08 1040.85 1946.65C1066.25 1887.55 1102.96 1834.22 1147.27 1787.53C1251.88 1677.31 1323.04 1515.11 1334.28 1330.87L1334.29 1330.88Z" fill="#7CDED5"/>
<path d="M884.27 260.35C897.07 406.51 905.17 552.97 911.73 699.5C913.39 736.13 914.46 772.79 915.64 809.44L917.41 864.42L918.72 919.41C919.45 956.08 920.69 992.73 921.01 1029.41L921.97 1139.43C921.67 1212.78 922 1286.14 920.33 1359.49C919.55 1396.16 919.49 1432.84 917.96 1469.5L913.9 1579.47C907 1726.04 896.41 1872.5 878.44 2018.14L872.16 2017.43L881.46 1907.95L883.84 1880.6L885.54 1853.19L888.84 1798.36L892.24 1743.55C893.41 1725.28 893.89 1706.97 894.75 1688.68C896.23 1652.09 897.99 1615.52 899.23 1578.92C903.24 1432.5 905.3 1286.02 904.34 1139.53C903.3 1066.28 902.89 993.04 901.34 919.79L900.33 864.86L898.86 809.93C897.9 773.31 896.94 736.69 895.61 700.09C893.58 626.85 891.02 553.62 887.87 480.42C885.1 407.2 881.64 333.99 877.95 260.82L884.26 260.36L884.27 260.35Z" fill="#00AC9B"/>
<path d="M852.35 1103.57C836.75 947.16 771.57 811.21 679.73 719.83C597.63 638.14 549.27 527.94 547.11 412.15C546.88 399.98 546.16 387.67 544.92 375.25C526.15 187.14 395.96 46.1103 254.13 60.2503C112.3 74.4003 12.5304 238.36 31.3004 426.48C35.1404 464.95 43.6304 501.43 55.9404 535.03C95.2204 642.24 94.5404 760.59 49.7604 865.62C9.73043 959.48 -8.15957 1070.97 3.53043 1188.24C20.9704 1363.14 100.41 1512.45 209.79 1602.48C251.16 1636.53 286.23 1677.92 312.67 1724.52C356.62 1801.96 431.4 1849.95 511.03 1842.01C596.93 1833.44 664.43 1762.18 688.15 1667.26C701.57 1613.54 725.37 1563.17 756.53 1517.41C830.09 1409.37 868.14 1261.73 852.37 1103.59L852.35 1103.57Z" fill="#A2DCD5"/>
<path d="M323.761 255.42C354.691 377.9 381.671 501.27 407.361 624.92C413.801 655.83 419.741 686.84 425.781 717.83L434.831 764.32L443.501 810.88C449.161 841.94 455.241 872.93 460.551 904.06L476.471 997.44C486.291 1059.83 496.641 1122.14 505.311 1184.71C509.691 1215.99 514.671 1247.17 518.411 1278.54L530.071 1372.57C544.351 1498.09 555.491 1624.04 560.251 1750.3L554.821 1750.56L547.671 1656.23L545.931 1632.65L543.611 1609.11L538.871 1562.05L534.221 1514.99C532.701 1499.3 530.601 1483.67 528.821 1468.01C525.051 1436.71 521.521 1405.38 517.541 1374.11C500.831 1249.1 482.461 1124.32 461.531 999.93C450.591 937.82 440.181 875.61 428.811 813.57L420.411 767.02L411.621 720.54C405.781 689.55 399.941 658.55 393.781 627.62C382.001 565.65 369.771 503.76 357.041 441.97C344.631 380.11 331.641 318.36 318.471 256.67L323.751 255.41L323.761 255.42Z" fill="#8EBFB8"/>
<path d="M2810.98 2324.76C2810.98 2350.88 2789.59 2372.25 2763.44 2372.25H192.7C166.55 2372.25 145.16 2350.88 145.16 2324.76L123.77 847.42C123.77 821.3 154.55 770.3 210.95 774.13L2723.37 709.12C2756.18 708.27 2787.9 720.9 2811.13 744.05C2834.36 767.21 2847.07 798.87 2846.3 831.64L2811 2324.74L2810.98 2324.76Z" fill="#00AC9B"/>
<path d="M2764.05 2279.19C2764.05 2303.93 2743.81 2324.17 2719.07 2324.17H254.69C229.95 2324.17 209.71 2303.93 209.71 2279.19L189.52 938.05C191.9 857.34 262.65 828.34 305.55 830.05L2713.54 765.45C2736.59 764.83 2758.88 773.71 2775.2 789.99C2791.52 806.28 2800.43 828.55 2799.85 851.6L2764.04 2279.18L2764.05 2279.19Z" fill="#4ECCBD"/>
<path d="M236.349 1639.71C234.039 1639.71 232.139 1637.85 232.109 1635.53L230.509 1526.76C230.479 1524.42 232.349 1522.49 234.689 1522.45C236.959 1522.32 238.959 1524.29 238.999 1526.63L240.599 1635.4C240.629 1637.74 238.759 1639.67 236.419 1639.71H236.359H236.349Z" fill="url(#paint0_linear_270_104)"/>
<path d="M232.429 1373.18C230.119 1373.18 228.219 1371.32 228.189 1369L222.069 952.44C222.199 924.44 230.829 902.06 247.729 885.87C278.439 856.44 326.459 857.92 328.479 858L1097.4 837.36C1099.72 837.15 1101.69 839.14 1101.76 841.49C1101.82 843.83 1099.97 845.78 1097.63 845.85L328.459 866.49C326.269 866.4 281.739 865.04 253.599 892.01C238.419 906.55 230.669 926.88 230.549 952.41L236.669 1368.89C236.699 1371.23 234.829 1373.16 232.489 1373.2H232.429V1373.18Z" fill="url(#paint1_linear_270_104)"/>
<path d="M318.289 2204.79C320.869 2093.94 319.909 1112.37 313.549 1027.59C307.189 942.82 439.219 926.92 641.919 917.38C844.619 907.84 2554.92 870.07 2598.96 866.5C2697.94 858.47 2718.43 1006.42 2708.53 1327.61C2701.09 1568.92 2688.76 1966.43 2683.09 2149.23C2681.4 2203.66 2636.91 2246.85 2582.45 2247C2170.88 2248.13 593.469 2252.65 488.459 2255.78C367.619 2259.38 317.269 2248.74 318.299 2204.79H318.289Z" fill="#7CDED5"/>
<g opacity="0.4">
<path d="M488.399 1892.15H345.079V2223.2H488.399V1892.15Z" fill="white"/>
<path d="M727.88 1600.05H584.56V2223.19H727.88V1600.05Z" fill="white"/>
<path d="M967.359 1878.74H824.039V2223.2H967.359V1878.74Z" fill="white"/>
<path d="M1206.85 1708.85H1063.53V2223.2H1206.85V1708.85Z" fill="white"/>
<path d="M1446.33 1748.88H1303.01V2223.2H1446.33V1748.88Z" fill="white"/>
<path d="M1685.81 1701.05H1542.49V2223.2H1685.81V1701.05Z" fill="white"/>
<path d="M1925.29 1365.91H1781.97V2223.2H1925.29V1365.91Z" fill="white"/>
<path d="M2164.77 1512.15H2021.45V2223.2H2164.77V1512.15Z" fill="white"/>
<path d="M2404.26 1667.57H2260.94V2223.19H2404.26V1667.57Z" fill="white"/>
<path d="M2643.74 1278.25H2500.42V2223.2H2643.74V1278.25Z" fill="white"/>
</g>
<g opacity="0.7">
<path d="M2576.29 1343.4C2581.55 1343.46 2585.81 1343.99 2585.81 1344.58V1651.49C2585.81 1652.08 2581.55 1652.6 2576.29 1652.65C2571.03 1652.7 2566.75 1652.27 2566.75 1651.68V1344.35C2566.75 1343.76 2571.02 1343.34 2576.29 1343.4Z" fill="#00CCAE"/>
<path d="M2499.07 1117.14L2646.09 1119.16V1431.65L2499.07 1432.88V1117.14Z" fill="#00CCAE"/>
<path d="M2332.99 1314.38C2338.12 1314.46 2342.27 1314.9 2342.27 1315.35V1553.19C2342.27 1553.65 2338.11 1554.02 2332.99 1554.03C2327.86 1554.04 2323.69 1553.68 2323.69 1553.22V1315.05C2323.69 1314.59 2327.85 1314.29 2332.99 1314.37V1314.38Z" fill="#00CCAE"/>
<path d="M2260.94 1249.74L2404.26 1252.45V1437.06L2260.94 1436.33V1249.74Z" fill="#00CCAE"/>
<path d="M2093.32 1674.79C2098.46 1674.8 2102.63 1675.17 2102.63 1675.6V1903.48C2102.63 1903.92 2098.46 1904.33 2093.32 1904.41C2088.18 1904.49 2084 1904.2 2084 1903.76V1675.55C2084 1675.11 2088.18 1674.77 2093.32 1674.78V1674.79Z" fill="#00CCAE"/>
<path d="M2021.05 1411.21L2164.75 1410.32V1683.52L2021.05 1687.42V1411.21Z" fill="#00CCAE"/>
<path d="M1853.19 1398.24C1857.8 1398.24 1861.53 1398.59 1861.53 1399.02V1622.64C1861.53 1623.07 1857.8 1623.49 1853.19 1623.58C1848.58 1623.67 1844.84 1623.39 1844.84 1622.97V1399.02C1844.84 1398.59 1848.58 1398.24 1853.19 1398.24Z" fill="#00CCAE"/>
<path d="M1781.97 1328.88L1925.3 1327.67V1507.58L1781.97 1510.81V1328.88Z" fill="#00CCAE"/>
<path d="M1612.19 1291.69C1616.92 1291.71 1620.76 1292.18 1620.76 1292.73V1579.25C1620.76 1579.8 1616.92 1580.32 1612.19 1580.41C1607.45 1580.5 1603.61 1580.13 1603.61 1579.58V1292.64C1603.61 1292.09 1607.45 1291.67 1612.19 1291.69Z" fill="#00CCAE"/>
<path d="M1545.65 1241.29L1685.82 1240.97V1447.65L1545.65 1450.34V1241.29Z" fill="#00CCAE"/>
<path d="M1377.98 1741.92C1382.9 1741.92 1386.89 1742.2 1386.89 1742.56V1929.89C1386.89 1930.25 1382.9 1930.61 1377.98 1930.69C1373.06 1930.77 1369.06 1930.55 1369.06 1930.19V1742.57C1369.06 1742.21 1373.06 1741.92 1377.98 1741.91V1741.92Z" fill="#00CCAE"/>
<path d="M1295.1 1510.1L1446.27 1507.99V1746.42L1295.1 1751.36V1510.1Z" fill="#00CCAE"/>
<path d="M1063.36 1582.55L1206.73 1581.92V1719.27L1063.36 1721.55V1582.55Z" fill="#00CCAE"/>
<path d="M821.579 1537.01L965.009 1532.39V1737.14L821.579 1744.33V1537.01Z" fill="#00CCAE"/>
<path d="M645.759 1826.19C650.659 1826.06 654.629 1826.3 654.629 1826.72V2046.56C654.629 2046.98 650.659 2047.51 645.759 2047.73C640.849 2047.96 636.869 2047.8 636.869 2047.38V1827.18C636.869 1826.76 640.849 1826.31 645.759 1826.19Z" fill="#00CCAE"/>
<path d="M580.569 1911.32L729.399 1904.67V2056.03L580.569 2064.62V1911.32Z" fill="#00CCAE"/>
<path d="M344.779 1522.97L487.109 1519.81V1660.22L344.779 1665.2V1522.97Z" fill="#00CCAE"/>
</g>
<path d="M416.399 2155.72C411.299 2156.15 407.169 2155.42 407.169 2154.09V1459.68C407.169 1458.35 411.309 1457.18 416.399 1457.08C421.489 1456.97 425.619 1457.96 425.619 1459.29V2152.54C425.619 2153.87 421.489 2155.29 416.399 2155.72Z" fill="#007062"/>
<path d="M487.109 1926.65L344.779 1936.25V1658.69L487.109 1652.64V1926.65Z" fill="#007062"/>
<path d="M661.639 2137.99C656.729 2138.42 652.749 2138.01 652.749 2137.08V1648.86C652.749 1647.93 656.729 1647 661.639 1646.79C666.539 1646.58 670.509 1647.17 670.509 1648.1V2135.52C670.509 2136.45 666.539 2137.56 661.639 2137.99Z" fill="#007062"/>
<path d="M729.7 1962.93L584.56 1972.81V1809.45L729.7 1801.62V1962.93Z" fill="#007062"/>
<path d="M896.12 2218.7C891.4 2219.26 887.56 2218.52 887.56 2217.06V1453.39C887.56 1451.93 891.39 1450.57 896.12 1450.35C900.84 1450.14 904.67 1451.15 904.67 1452.61V2215.06C904.67 2216.52 900.84 2218.15 896.12 2218.71V2218.7Z" fill="#007062"/>
<path d="M965.01 2009.68L817.97 2022.16V1689.32L965.01 1680.94V2009.68Z" fill="#007062"/>
<path d="M1128.13 2030.78C1123.04 2031.49 1118.91 2031.33 1118.91 2030.41V1550.14C1118.91 1549.22 1123.04 1548.07 1128.13 1547.56C1133.22 1547.06 1137.34 1547.4 1137.34 1548.31V2027.82C1137.34 2028.74 1133.22 2030.06 1128.13 2030.77V2030.78Z" fill="#007062"/>
<path d="M1206.73 1811.49L1056.61 1820.38V1715.31L1206.73 1707.7V1811.49Z" fill="#007062"/>
<path d="M1377.06 1652.91C1372.07 1653.11 1368.02 1652.37 1368.02 1651.26V1071.7C1368.02 1070.59 1372.07 1069.73 1377.06 1069.78C1382.05 1069.83 1386.09 1070.76 1386.09 1071.87V1650.54C1386.09 1651.65 1382.05 1652.71 1377.06 1652.91Z" fill="#007062"/>
<path d="M1446.33 1509.3L1301.15 1513.4V1220.84L1446.33 1220.16V1509.3Z" fill="#007062"/>
<path d="M1612.72 1934.42C1608.02 1934.73 1604.21 1933.74 1604.21 1932.21V1135.91C1604.21 1134.39 1608.02 1133.17 1612.72 1133.2C1617.42 1133.23 1621.22 1134.48 1621.22 1136V1931.11C1621.22 1932.63 1617.42 1934.11 1612.72 1934.42Z" fill="#007062"/>
<path d="M1685.81 1704.3L1542.49 1710.29V1351.43L1685.81 1349.56V1704.3Z" fill="#007062"/>
<path d="M1852.24 1856.77C1847.7 1857.16 1844.01 1856.49 1844.01 1855.28V1221.19C1844.01 1219.98 1847.7 1218.89 1852.24 1218.75C1856.78 1218.62 1860.46 1219.5 1860.46 1220.71V1853.87C1860.46 1855.08 1856.78 1856.38 1852.24 1856.77Z" fill="#007062"/>
<path d="M1925.3 1715.05L1781.97 1722.15V1495.45L1925.3 1490.92V1715.05Z" fill="#007062"/>
<path d="M2093.32 1398.23C2088.18 1398.34 2084 1397.73 2084 1396.88V949.98C2084 949.12 2088.18 948.48 2093.32 948.55C2098.46 948.62 2102.63 949.36 2102.63 950.22V1396.5C2102.63 1397.35 2098.46 1398.14 2093.32 1398.24V1398.23Z" fill="#007062"/>
<path d="M2164.78 1417.42L2021.08 1420.35V1076.96L2164.78 1077.73V1417.42Z" fill="#007062"/>
<path d="M2332.98 1849.83C2327.85 1849.9 2323.68 1848.83 2323.68 1847.43V1119.3C2323.68 1117.91 2327.84 1116.95 2332.98 1117.16C2338.11 1117.37 2342.26 1118.67 2342.26 1120.06V1847.19C2342.26 1848.58 2338.1 1849.77 2332.98 1849.84V1849.83Z" fill="#007062"/>
<path d="M2404.26 1684.62L2260.94 1684.46V1413.45L2404.26 1416.48V1684.62Z" fill="#007062"/>
<path d="M2576.28 1312.83C2571.02 1312.95 2566.74 1312.32 2566.74 1311.43V847.141C2566.74 846.251 2571.01 845.571 2576.28 845.631C2581.54 845.681 2585.8 846.451 2585.8 847.341V1311.01C2585.8 1311.9 2581.54 1312.71 2576.28 1312.83Z" fill="#007062"/>
<path d="M2649.42 1132.79L2502.39 1134.43V960.99L2649.42 961.13V1132.79Z" fill="#007062"/>
<path d="M2309.77 1199C2534.08 974.695 2534.08 611.018 2309.77 386.708C2085.46 162.399 1721.78 162.399 1497.47 386.708C1273.16 611.018 1273.16 974.695 1497.47 1199C1721.78 1423.31 2085.46 1423.31 2309.77 1199Z" fill="url(#paint2_linear_270_104)"/>
<path d="M2296.26 1185.5C2513.12 968.648 2513.11 617.065 2296.26 400.214C2079.41 183.364 1727.83 183.364 1510.98 400.214C1294.13 617.064 1294.13 968.648 1510.98 1185.5C1727.83 1402.35 2079.41 1402.35 2296.26 1185.5Z" fill="url(#paint3_linear_270_104)"/>
<path d="M1445.74 565.62C1445.22 565.62 1444.7 565.5 1444.2 565.25C1442.51 564.4 1441.83 562.33 1442.68 560.65C1485.08 476.66 1549.67 405.75 1629.47 355.62C1711.49 304.09 1806.29 276.85 1903.62 276.85C1934.88 276.85 1966.2 279.67 1996.7 285.22C1998.57 285.56 1999.8 287.34 1999.46 289.21C1999.12 291.08 1997.33 292.33 1995.47 291.97C1965.37 286.49 1934.46 283.71 1903.61 283.71C1710.26 283.71 1535.98 391.01 1448.79 563.75C1448.19 564.95 1446.98 565.64 1445.73 565.64L1445.74 565.62Z" fill="white"/>
<path opacity="0.78" d="M2248.04 1137.28C2431.58 953.745 2431.58 656.17 2248.04 472.631C2064.5 289.092 1766.93 289.092 1583.39 472.631C1399.85 656.17 1399.85 953.744 1583.39 1137.28C1766.93 1320.82 2064.5 1320.82 2248.04 1137.28Z" fill="white"/>
<path d="M2147.92 843.199C2124.08 821.029 2091.3 807.669 2050.97 803.139C2050.78 803.119 2050.64 802.959 2050.64 802.769V801.969C2050.64 801.799 2050.75 801.649 2050.92 801.609C2083.13 793.559 2100.75 779.259 2121.2 758.739C2141.7 738.159 2152.7 714.149 2152.7 686.699C2152.7 648.849 2135.06 619.509 2101.37 598.689C2072.92 581.109 2040.24 570.959 1993.08 568.219C1989.94 568.039 1987.48 565.439 1987.48 562.289V468.359C1987.48 465.079 1984.82 462.409 1981.53 462.409H1938.36C1935.08 462.409 1932.41 465.069 1932.41 468.359V563.349C1932.41 566.629 1929.75 569.299 1926.46 569.299H1876.82C1873.54 569.299 1870.87 566.639 1870.87 563.349V468.359C1870.87 465.079 1868.21 462.409 1864.92 462.409H1821.75C1818.47 462.409 1815.8 465.069 1815.8 468.359V563.349C1815.8 566.629 1813.14 569.299 1809.85 569.299H1684.1C1680.82 569.299 1678.15 571.959 1678.15 575.249V623.269C1678.15 626.549 1680.81 629.219 1684.1 629.219H1754.79C1758.07 629.219 1760.74 631.879 1760.74 635.169V1005.45C1760.74 1008.74 1758.08 1011.4 1754.79 1011.4H1684.1C1680.82 1011.4 1678.15 1014.06 1678.15 1017.35V1071.85C1678.15 1075.13 1680.81 1077.8 1684.1 1077.8H1809.85C1813.13 1077.8 1815.8 1080.46 1815.8 1083.75V1181.97C1815.8 1185.25 1818.46 1187.92 1821.75 1187.92H1864.92C1868.2 1187.92 1870.87 1185.26 1870.87 1181.97V1083.75C1870.87 1080.47 1873.53 1077.8 1876.82 1077.8H1926.46C1929.74 1077.8 1932.41 1080.46 1932.41 1083.75V1181.97C1932.41 1185.25 1935.07 1187.92 1938.36 1187.92H1981.53C1984.81 1187.92 1987.48 1185.26 1987.48 1181.97V1081.98C1987.48 1078.78 1990 1076.17 1993.19 1076.04C2048.93 1073.86 2095.24 1060.32 2128.85 1035.38C2165.68 1008.06 2183.93 971.089 2183.93 924.479C2183.93 892.539 2171.82 865.459 2147.92 843.209V843.199ZM1937.24 653.509C1998.88 653.509 2029.71 671.409 2029.71 708.789C2029.71 728.899 2022.2 744.679 2007.18 756.149C1992.16 767.629 1971.59 773.339 1945.47 773.339H1876.83C1873.55 773.339 1870.88 770.679 1870.88 767.389V659.449C1870.88 656.169 1873.54 653.499 1876.83 653.499H1937.24V653.509ZM2027.16 975.979C2010.57 988.279 1987.65 995.199 1958.4 995.199H1876.83C1873.55 995.199 1870.88 992.539 1870.88 989.249V865.119C1870.88 861.839 1873.54 859.169 1876.83 859.169H1959.18C1988.43 859.169 2011.22 864.259 2027.55 875.849C2043.87 887.439 2052.04 905.209 2052.04 925.559C2052.04 945.909 2043.75 963.679 2027.16 975.979Z" fill="#FFBD03"/>
<path d="M493.8 2713.8C493.8 2713.8 488.66 2742.92 486.14 2771.74C485.15 2783 493.84 2792.78 505.14 2793.25C543.52 2794.85 625.62 2797.96 655.08 2796.64C659.51 2796.44 662.4 2791.91 660.77 2787.79C659.4 2784.34 656.75 2781.55 653.37 2780L517.76 2717.67L493.81 2713.8H493.8Z" fill="#00312C"/>
<path d="M489.59 2696.69L493.72 2731.52C493.72 2731.52 517.48 2742.58 533.7 2730.13L523.86 2691.32L489.59 2696.7V2696.69Z" fill="url(#paint4_linear_270_104)"/>
<path d="M492.7 2041.95C490.92 2051.04 483.12 2495.79 530.66 2695.1C531.44 2698.35 529.79 2701.7 526.69 2702.97C519.4 2705.95 505.1 2710.26 487.97 2710.84C482.66 2711.02 477.91 2707.57 476.41 2702.48C462.82 2656.24 397.7 2424.55 389.21 2203.23C379.72 1955.92 389.21 2194.81 389.21 2194.81L394.78 2041.94L492.7 2041.96V2041.95Z" fill="#00312C"/>
<path d="M337.801 2728.99C337.801 2728.99 329.611 2743.69 321.691 2782.75C320.261 2789.8 325.191 2796.55 332.351 2797.26C345.021 2798.51 364.531 2800.11 380.161 2800C387.361 2799.95 392.991 2793.68 392.121 2786.52C390.391 2772.26 385.001 2748.87 368.341 2730.64L337.811 2728.99H337.801Z" fill="#00312C"/>
<path d="M330.61 2684.19L340.27 2736.86C340.27 2736.86 349.82 2743.96 368.7 2738.81L364.09 2682.14L330.61 2684.19Z" fill="url(#paint5_linear_270_104)"/>
<path d="M304.53 2055.6C265.65 2290.25 312.96 2635.57 328.92 2703.15C329.9 2707.29 333.24 2710.46 337.43 2711.15C344.55 2712.33 356.28 2713.29 367.84 2709.94C371.82 2708.78 374.62 2705.19 374.78 2701.04C376.92 2646.4 373.07 2310.95 409.3 2178.39C411.14 2171.67 415.24 2165.81 420.92 2161.78L491.24 2111.79L496.63 2030.99L304.53 2055.61V2055.6Z" fill="#00312C"/>
<path d="M552.29 1610.97C435.77 1609.05 307.2 1641.56 307.2 1641.56C272.47 1844.22 301.13 2077.98 301.13 2077.98C391.34 2101.64 493.1 2063.52 493.1 2063.52C508.09 1978.81 578.05 1740.41 578.05 1740.41C634.98 1733.34 681.88 1716.92 720.5 1695.2C691.04 1661.05 677.15 1617.6 671.12 1591.91C629.92 1604.71 588.24 1611.55 552.3 1610.96L552.29 1610.97Z" fill="#006D60"/>
<path d="M896.469 1439.35C885.019 1425.52 870.539 1432.06 870.539 1432.06C853.389 1504.49 763.479 1563.22 671.109 1591.93C677.139 1617.62 691.029 1661.07 720.489 1695.22C873.779 1609.03 896.469 1439.35 896.469 1439.35Z" fill="url(#paint6_linear_270_104)"/>
<path d="M893.69 1442.86C894.89 1446.67 881.02 1452.46 872.85 1436.89C872.56 1429.43 868.03 1397.45 872.49 1391.37C896.24 1358.99 942.29 1318.39 942.29 1318.39C950.07 1326.07 943.66 1333.61 943.66 1333.61L921.32 1356.88C925.99 1365.32 931.69 1372.45 934.36 1382.67C936.38 1390.4 935.15 1398.67 931.24 1405.71C927.32 1412.77 921.97 1421.96 916.91 1429.15C907.34 1442.75 893.69 1442.85 893.69 1442.85V1442.86Z" fill="url(#paint7_linear_270_104)"/>
<path d="M911.55 1372L891.19 1389.26L884.8 1406.44L902.95 1426.58C902.95 1426.58 909.05 1392.49 913.59 1385.11C918.13 1377.73 915.77 1374.16 911.55 1372.01V1372Z" fill="url(#paint8_linear_270_104)"/>
<path d="M351.89 1754.4L307.2 1641.57C307.2 1641.57 198.36 1715.52 180.46 1809.28C201.02 1810.79 238.45 1816.14 275.07 1834.64C283.12 1790.37 351.88 1754.4 351.88 1754.4H351.89Z" fill="#006D60"/>
<path d="M447 1860.56C447 1860.56 324.8 1929.62 283.57 1870.65C275.01 1858.41 272.96 1846.24 275.07 1834.64C238.44 1816.15 201.02 1810.8 180.46 1809.28C175.06 1837.54 177.92 1867.61 194.53 1897.99C266.75 2030.11 463.18 1890.69 463.18 1890.69L447.01 1860.56H447Z" fill="url(#paint9_linear_270_104)"/>
<path d="M432.32 1947.93L499.01 1715.03C499.77 1712.39 502.02 1710.46 504.75 1710.14C516.83 1708.73 551.85 1704.77 592.27 1701.35C640.96 1697.23 697.51 1693.89 731.3 1696.73C736.1 1697.13 739.01 1702.21 736.87 1706.54C717.65 1745.42 638.61 1903.55 599.03 1955.36C597.72 1957.08 595.69 1958.08 593.53 1958.06L438.8 1956.62C434.3 1956.58 431.07 1952.26 432.31 1947.93H432.32Z" fill="#005147"/>
<path d="M599.19 1681.16L647.54 1673.1C650.12 1672.67 652.22 1675.13 651.41 1677.61L646.62 1692.11C646.2 1693.37 645.1 1694.29 643.78 1694.46L597.25 1700.68C594.84 1701 592.86 1698.81 593.41 1696.45L596.37 1683.79C596.69 1682.43 597.8 1681.39 599.18 1681.16H599.19Z" fill="#00CCAE"/>
<path d="M562.99 1722.1L566.97 1701.35C567.37 1699.27 569.09 1697.7 571.2 1697.48L668.86 1687.57C672.15 1687.24 674.78 1690.25 674.01 1693.46L667.8 1719.31C667.3 1721.38 665.5 1722.87 663.38 1722.98L567.95 1727.78C564.84 1727.94 562.41 1725.14 563 1722.09L562.99 1722.1Z" fill="#00CCAE"/>
<path d="M448.43 1891.66C448.43 1891.66 439.14 1853.46 442.89 1839.91C446.64 1826.36 453.9 1808.93 478.1 1812.8C502.3 1816.67 530.85 1826.87 530.85 1826.87C530.85 1826.87 529.41 1844.52 511.01 1838.83L522.42 1847.66C522.42 1847.66 520.79 1861.79 505.25 1854.24L515.86 1865.94C515.86 1865.94 509.19 1877.55 497.76 1870.1C486.33 1862.65 480.85 1896.26 448.43 1891.66Z" fill="url(#paint10_linear_270_104)"/>
<path d="M434.26 1516.38L397.18 1623.6C396.57 1625.38 397.3 1627.34 398.94 1628.25C409.05 1633.84 445.46 1649.99 489.34 1622.17C493.91 1619.27 497.02 1614.55 497.72 1609.18L509.73 1516.38H434.27H434.26Z" fill="url(#paint11_linear_270_104)"/>
<path d="M514.931 1417.09C514.931 1417.09 555.641 1493.73 550.421 1524.68C545.201 1555.64 494.751 1553.41 450.681 1528.27L419.891 1445.52L514.921 1417.08L514.931 1417.09Z" fill="url(#paint12_linear_270_104)"/>
<path d="M452.63 1487.64C454.42 1486.85 455.08 1484.66 454.01 1483.02C450.75 1478.04 444.63 1467.87 442.68 1458.97C442.68 1458.97 435.36 1454.28 461.31 1448.07C487.26 1441.86 525.95 1432.22 534.08 1410.13C542.01 1388.6 521.17 1334.45 487.94 1377.59C486.68 1379.23 484.2 1379.27 482.93 1377.62C477.48 1370.53 463.16 1355.81 443.27 1364.73C424.66 1373.08 422.56 1386.72 422.82 1393.59C422.9 1395.61 421.09 1397.18 419.1 1396.81C409.69 1395.02 387.11 1393.47 376.57 1416.64C367.89 1435.72 373.53 1446.52 378.67 1451.8C380.34 1453.51 379.61 1456.33 377.32 1457.03C371.14 1458.92 363.15 1464.17 363.95 1478.66C365.06 1498.69 387.45 1496.93 393.83 1496.01C394.87 1495.86 395.93 1496.22 396.63 1497C402.1 1503.05 426.73 1528.74 453.39 1531.84C455.7 1532.11 457.49 1529.83 456.73 1527.63L445.19 1494.09C444.65 1492.53 445.4 1490.82 446.91 1490.16L452.63 1487.62V1487.64Z" fill="#00312C"/>
<path d="M457.27 1492.4C457.27 1492.4 428.28 1472.51 426.16 1489.26C424.04 1506.01 452.26 1513.52 466.24 1507.28L457.26 1492.4H457.27Z" fill="url(#paint13_linear_270_104)"/>
<path d="M2364.49 2450.17H2340.27V2712.05H2364.49V2450.17Z" fill="#005147"/>
<path d="M2248.95 2701.34H2455.81C2457.26 2701.34 2458.43 2702.51 2458.43 2703.96V2717.1H2246.33V2703.96C2246.33 2702.51 2247.5 2701.34 2248.95 2701.34Z" fill="#005147"/>
<path d="M2249.27 2391.49H2463.86C2478.23 2391.49 2489.9 2403.16 2489.9 2417.53V2441.08C2489.9 2455.45 2478.23 2467.12 2463.86 2467.12H2249.27C2234.9 2467.12 2223.23 2455.45 2223.23 2441.08V2417.53C2223.23 2403.16 2234.9 2391.49 2249.27 2391.49Z" fill="#005147"/>
<path d="M2173.6 2275.56C2173.6 2275.56 2137.62 2281.14 2097.16 2308.18C2090.79 2312.44 2087.3 2319.86 2088.26 2327.45C2093.1 2365.82 2113.02 2490.03 2178.71 2611.34C2182.17 2617.74 2183.17 2625.18 2181.64 2632.3L2170.23 2685.41L2149.07 2705.25H2203.58L2239.87 2607.03L2224.35 2602.12C2212.32 2598.31 2204.06 2587.25 2203.84 2574.63L2202.02 2469.27C2203.57 2422.33 2173.24 2389.94 2173.24 2389.94L2260.29 2385.7L2173.6 2275.54V2275.56Z" fill="url(#paint14_linear_270_104)"/>
<path d="M2127.78 2714.83C2122.82 2721.33 2181.21 2729.9 2210.71 2715.69C2210.71 2715.69 2251.61 2644.54 2251.61 2607.9C2251.61 2607.9 2248.36 2600.43 2224.35 2602.12C2224.35 2602.12 2210.62 2686.37 2196.12 2695.81C2181.62 2705.25 2155.55 2696.76 2155.55 2696.76C2155.55 2696.76 2135.1 2705.24 2127.78 2714.82V2714.83Z" fill="#006D60"/>
<path d="M2249.27 2391.49C2248.81 2390.69 2155.55 2380.28 2155.55 2380.28C2155.55 2380.28 2158.6 2408.64 2149.06 2447.67C2139.52 2486.71 2002.59 2655.83 2002.59 2655.83L2016.95 2701.34C1972.56 2716.8 1928.89 2719.27 1885.93 2709.22L1974.91 2655.82C1974.91 2655.82 2058.18 2372.04 2109.19 2321.42L2202.67 2289.08L2249.27 2391.49Z" fill="url(#paint15_linear_270_104)"/>
<path d="M2458.43 2226.37C2458.43 2226.37 2512.16 2306.29 2516.57 2342.75C2520.98 2379.21 2501.85 2394.02 2445.47 2396.46C2389.09 2398.9 2238.58 2398.86 2238.58 2398.86L2110.12 2289.08C2110.12 2289.08 2203.73 2255.68 2228.07 2246.23C2252.41 2236.79 2458.42 2226.37 2458.42 2226.37H2458.43Z" fill="#006D60"/>
<path d="M2011.53 2686.01C2011.53 2686.01 2026.99 2700.98 2016.55 2717.64C2016.55 2717.64 1894.1 2739.34 1860.86 2729.5C1860.86 2729.5 1867.76 2713.74 1905.2 2695.81L1902.44 2697.93C1898.94 2700.61 1900.99 2706.2 1905.39 2705.95C1930.06 2704.54 1981.11 2700.02 2011.54 2686.01H2011.53Z" fill="#006D60"/>
<path d="M2313.11 2215.79C2313.11 2215.79 2250.54 2156.21 2219.74 2116.75C2203.09 2095.42 2197.86 2067.34 2205.56 2041.4C2219.62 1994.03 2244.61 1944.96 2246.89 1937.32C2250.38 1925.61 2320.54 1926.1 2320.54 1926.1C2320.54 1926.1 2458.6 2015.7 2512.84 2167.48L2451.92 2186.45C2451.92 2186.45 2415.87 2125.97 2380.26 2087.53C2380.26 2087.53 2441.89 2168.94 2444.06 2202.27L2313.11 2215.8V2215.79Z" fill="#00312C"/>
<path d="M2238.41 1871.89C2239.14 1874.32 2257.45 1935.03 2258.89 1936.29C2260.32 1937.55 2299.05 1939.63 2317.28 1927.18L2286.36 1862.44L2238.42 1871.89H2238.41Z" fill="url(#paint16_linear_270_104)"/>
<path d="M2268.49 1744.39C2268.49 1744.39 2235.43 1758.35 2212.95 1806.12C2190.47 1853.89 2207.26 1875.95 2228.34 1878.97C2249.42 1882 2280.96 1881.54 2314.31 1850.68C2347.66 1819.82 2311.46 1727.84 2268.48 1744.39H2268.49Z" fill="url(#paint17_linear_270_104)"/>
<path d="M2291.9 1825.18C2291.9 1825.18 2316.84 1755.29 2254.88 1754.46L2240.3 1764.65C2240.3 1764.65 2217.56 1725.9 2254.88 1707.4C2292.2 1688.9 2347.88 1705.37 2363.76 1755.65C2379.64 1805.92 2370.34 1838.39 2343.93 1862.44C2317.51 1886.49 2306.62 1859.22 2306.62 1859.22C2306.62 1859.22 2321.01 1836.72 2315.15 1824.69C2309.29 1812.65 2295.78 1827.18 2295.78 1827.18L2291.9 1825.18Z" fill="#00312C"/>
<path d="M2298.85 1832.96C2298.85 1832.96 2311.46 1796.96 2328.28 1811.3C2345.1 1825.64 2314.61 1844.56 2302.67 1850.68L2298.85 1832.96Z" fill="url(#paint18_linear_270_104)"/>
<path d="M2185.64 2220.22L2231.61 2175.91L2295.21 2202.78C2295.21 2202.78 2358.51 2212.59 2394.74 2202.78L2430.97 2192.97L2512.84 2167.48L2525.7 2203.82C2528.97 2213.05 2525.68 2223.29 2517.71 2228.96C2510.63 2233.99 2502.32 2239.53 2497.03 2241.84C2486.25 2246.56 2231.24 2238.58 2231.24 2238.58L2185.64 2220.22Z" fill="url(#paint19_linear_270_104)"/>
<path d="M2358.89 1763.53C2350.92 1755.39 2356.1 1741.64 2367.35 1739.89C2403.68 1734.22 2459.06 1740.01 2482.32 1817.77C2508.52 1905.36 2525.58 1949.16 2543.09 1956.84C2554.59 1961.89 2555.32 1977.85 2543.87 1982.99C2535.4 1986.79 2523.28 1988.14 2505.93 1984.32C2372.07 1954.87 2405.62 1811.27 2358.89 1763.53Z" fill="#00312C"/>
<path d="M2359.62 2241.11C2359.42 2241.12 2359.21 2241.13 2359.01 2241.12L2092.33 2240.83C2085.74 2240.83 2080.4 2235.47 2080.41 2228.88C2080.41 2222.29 2085.79 2216.84 2092.36 2216.96L2359.04 2217.25C2365.63 2217.25 2370.97 2222.61 2370.96 2229.2C2370.96 2235.59 2365.93 2240.8 2359.62 2241.11Z" fill="#005147"/>
<path d="M1852.59 1998.98H2074.68C2091.06 1998.98 2105.98 2008.44 2112.96 2023.25L2215.63 2240.96H1939.63C1929.07 2240.96 1919.59 2234.51 1915.71 2224.69L1836.09 2023.23C1831.49 2011.59 1840.07 1998.97 1852.59 1998.97V1998.98Z" fill="#005147"/>
<path d="M2009.06 2110.61C2013.87 2125.56 2010.32 2140.08 2001.12 2143.04C1991.92 2146 1980.56 2136.28 1975.75 2121.33C1970.94 2106.38 1974.49 2091.86 1983.69 2088.89C1992.89 2085.93 2004.25 2095.65 2009.06 2110.6V2110.61Z" fill="#00CCAE"/>
<path d="M2732.35 2250.85C2732.97 2247.83 2732.12 2244.7 2730.03 2242.32C2727.94 2239.94 2724.83 2238.57 2721.54 2238.57H1608.71C1604.39 2238.57 1600.37 2240.63 1598.04 2244.05C1595.71 2247.46 1595.4 2251.75 1597.21 2255.43L1609.27 2279.9C1612.03 2285.5 1618.02 2289.09 1624.6 2289.09H2713.91C2720.03 2289.09 2725.3 2285.02 2726.46 2279.38L2732.35 2250.86V2250.85Z" fill="#00AA91"/>
<path d="M1671.08 2766.5C1669.79 2766.5 1668.48 2766.24 1667.23 2765.68C1662.28 2763.5 1659.99 2757.62 1662.12 2752.55L1866.94 2265.4C1869.07 2260.33 1874.81 2257.99 1879.77 2260.17C1884.72 2262.35 1887.01 2268.23 1884.88 2273.3L1680.06 2760.45C1678.47 2764.23 1674.87 2766.5 1671.08 2766.5Z" fill="#00AA91"/>
<path d="M1901.81 2766.5C1898.03 2766.5 1894.42 2764.24 1892.83 2760.45L1688.01 2273.3C1685.88 2268.23 1688.17 2262.35 1693.12 2260.17C1698.07 2257.99 1703.82 2260.33 1705.95 2265.4L1910.77 2752.55C1912.9 2757.62 1910.61 2763.5 1905.66 2765.68C1904.4 2766.23 1903.09 2766.5 1901.81 2766.5Z" fill="#00AA91"/>
<path d="M2477.62 2766.5C2476.33 2766.5 2475.02 2766.24 2473.77 2765.68C2468.82 2763.5 2466.53 2757.62 2468.66 2752.55L2673.48 2265.4C2675.61 2260.33 2681.35 2257.99 2686.31 2260.17C2691.26 2262.35 2693.55 2268.23 2691.42 2273.3L2486.6 2760.45C2485.01 2764.23 2481.41 2766.5 2477.62 2766.5Z" fill="#00AA91"/>
<path d="M2708.35 2766.5C2704.57 2766.5 2700.96 2764.24 2699.37 2760.45L2494.55 2273.3C2492.42 2268.23 2494.71 2262.35 2499.66 2260.17C2504.61 2257.99 2510.36 2260.33 2512.49 2265.4L2717.31 2752.55C2719.44 2757.62 2717.15 2763.5 2712.2 2765.68C2710.94 2766.23 2709.63 2766.5 2708.35 2766.5Z" fill="#00AA91"/>
</g>
<defs>
<linearGradient id="paint0_linear_270_104" x1="230.509" y1="1581.08" x2="240.589" y2="1581.08" gradientUnits="userSpaceOnUse">
<stop stop-color="#DAE3FE"/>
<stop offset="1" stop-color="#E9EFFD"/>
</linearGradient>
<linearGradient id="paint1_linear_270_104" x1="222.069" y1="1105.26" x2="1101.77" y2="1105.26" gradientUnits="userSpaceOnUse">
<stop stop-color="#DAE3FE"/>
<stop offset="1" stop-color="#E9EFFD"/>
</linearGradient>
<linearGradient id="paint2_linear_270_104" x1="2465.5" y1="-265.324" x2="2156.88" y2="315.916" gradientUnits="userSpaceOnUse">
<stop stop-color="#E1C53D"/>
<stop offset="1" stop-color="#FFDD5A"/>
</linearGradient>
<linearGradient id="paint3_linear_270_104" x1="1956.81" y1="308.096" x2="1823.08" y2="1527.16" gradientUnits="userSpaceOnUse">
<stop stop-color="#FFB700"/>
<stop offset="1" stop-color="#FEE162"/>
</linearGradient>
<linearGradient id="paint4_linear_270_104" x1="489.59" y1="2713.68" x2="533.7" y2="2713.68" gradientUnits="userSpaceOnUse">
<stop stop-color="#FEBBBA"/>
<stop offset="1" stop-color="#FF928E"/>
</linearGradient>
<linearGradient id="paint5_linear_270_104" x1="330.61" y1="2711.42" x2="368.7" y2="2711.42" gradientUnits="userSpaceOnUse">
<stop stop-color="#FEBBBA"/>
<stop offset="1" stop-color="#FF928E"/>
</linearGradient>
<linearGradient id="paint6_linear_270_104" x1="671.109" y1="1562.86" x2="896.469" y2="1562.86" gradientUnits="userSpaceOnUse">
<stop stop-color="#FEBBBA"/>
<stop offset="1" stop-color="#FF928E"/>
</linearGradient>
<linearGradient id="paint7_linear_270_104" x1="846.26" y1="1525.09" x2="695.04" y2="1869.15" gradientUnits="userSpaceOnUse">
<stop stop-color="#FEBBBA"/>
<stop offset="1" stop-color="#FF928E"/>
</linearGradient>
<linearGradient id="paint8_linear_270_104" x1="895.39" y1="1410.5" x2="958.48" y2="1313.49" gradientUnits="userSpaceOnUse">
<stop stop-color="#FEBBBA"/>
<stop offset="1" stop-color="#FF928E"/>
</linearGradient>
<linearGradient id="paint9_linear_270_104" x1="177.98" y1="1882.08" x2="463.17" y2="1882.08" gradientUnits="userSpaceOnUse">
<stop stop-color="#FEBBBA"/>
<stop offset="1" stop-color="#FF928E"/>
</linearGradient>
<linearGradient id="paint10_linear_270_104" x1="442" y1="1852.17" x2="530.85" y2="1852.17" gradientUnits="userSpaceOnUse">
<stop stop-color="#FEBBBA"/>
<stop offset="1" stop-color="#FF928E"/>
</linearGradient>
<linearGradient id="paint11_linear_270_104" x1="396.97" y1="1577.19" x2="509.72" y2="1577.19" gradientUnits="userSpaceOnUse">
<stop stop-color="#FEBBBA"/>
<stop offset="1" stop-color="#FF928E"/>
</linearGradient>
<linearGradient id="paint12_linear_270_104" x1="536.214" y1="1505.49" x2="412.245" y2="1429.86" gradientUnits="userSpaceOnUse">
<stop stop-color="#FEBBBA"/>
<stop offset="1" stop-color="#FF928E"/>
</linearGradient>
<linearGradient id="paint13_linear_270_104" x1="503.655" y1="1533.69" x2="392.11" y2="1465.65" gradientUnits="userSpaceOnUse">
<stop stop-color="#FEBBBA"/>
<stop offset="1" stop-color="#FF928E"/>
</linearGradient>
<linearGradient id="paint14_linear_270_104" x1="2088.1" y1="2490.4" x2="2260.29" y2="2490.4" gradientUnits="userSpaceOnUse">
<stop stop-color="#FEBBBA"/>
<stop offset="1" stop-color="#FF928E"/>
</linearGradient>
<linearGradient id="paint15_linear_270_104" x1="1885.93" y1="2502.16" x2="2249.27" y2="2502.16" gradientUnits="userSpaceOnUse">
<stop stop-color="#FEBBBA"/>
<stop offset="1" stop-color="#FF928E"/>
</linearGradient>
<linearGradient id="paint16_linear_270_104" x1="2294.04" y1="2003.48" x2="2275.87" y2="1886.87" gradientUnits="userSpaceOnUse">
<stop stop-color="#FEBBBA"/>
<stop offset="1" stop-color="#FF928E"/>
</linearGradient>
<linearGradient id="paint17_linear_270_104" x1="2215.49" y1="1783.71" x2="2376.03" y2="1892.75" gradientUnits="userSpaceOnUse">
<stop stop-color="#FEBBBA"/>
<stop offset="1" stop-color="#FF928E"/>
</linearGradient>
<linearGradient id="paint18_linear_270_104" x1="2225.11" y1="1769.54" x2="2385.65" y2="1878.59" gradientUnits="userSpaceOnUse">
<stop stop-color="#FEBBBA"/>
<stop offset="1" stop-color="#FF928E"/>
</linearGradient>
<linearGradient id="paint19_linear_270_104" x1="2398.38" y1="2205.4" x2="2739.7" y2="2205.4" gradientUnits="userSpaceOnUse">
<stop stop-color="#FEBBBA"/>
<stop offset="1" stop-color="#FF928E"/>
</linearGradient>
<clipPath id="clip0_270_104">
<rect width="2846.32" height="2800" fill="white"/>
</clipPath>
</defs>
</svg>
