<svg width="2237" height="1494" viewBox="0 0 2237 1494" fill="none" xmlns="http://www.w3.org/2000/svg">
<path opacity="0.3" d="M2175.46 273.91C2120 164.09 1998.24 81.5099 1879.72 106.85C1808.76 122.02 1738.23 172.92 1670.18 147.37C1621.14 128.95 1593.45 76.7299 1552.23 43.9599C1488.78 -6.48012 1398.71 -5.89012 1321.39 16.7099C1244.06 39.3099 1173.28 80.8599 1096.88 106.55C966.68 150.33 821.37 145.58 694.19 93.3799C638.36 70.4599 586.1 38.8399 529.26 18.6599C472.42 -1.52012 407.96 -9.35012 353.1 15.8799C298.24 41.1099 258.87 107.11 277.91 165.35C281.71 176.96 287.66 188.41 286.88 200.62C285.63 220.21 267.08 234.56 248.32 238.91C229.56 243.27 210.01 240.42 190.77 240.92C104.45 243.15 27.3104 323.49 26.9004 411.58C26.5604 484.63 70.7204 548.82 108.48 610.89C146.23 672.96 180.17 747.44 157.68 816.79C144.34 857.91 113.06 890.08 92.5604 928.02C39.4204 1026.37 67.8304 1156.56 142.03 1239.52C216.23 1322.48 327.35 1363.07 437.02 1372.73C546.69 1382.39 656.68 1364.25 765.35 1346.32C874.02 1328.39 984.09 1310.55 1093.71 1320.83C1093.71 1320.83 1526 1384.5 1744.76 1355.57C1790.56 1349.51 1843.13 1336.49 1862.49 1293.71C1878.83 1257.6 1864.16 1215.26 1867.52 1175.64C1872.37 1118.53 1914.37 1071.75 1960.18 1038.55C2005.98 1005.35 2057.94 980.64 2099.21 941.73C2179.94 865.62 2207.33 747.83 2219.37 636.37C2232.63 513.58 2230.92 383.74 2175.46 273.92V273.91Z" fill="#94DDD6"/>
<g opacity="0.4">
<path d="M0.910072 627.76C-1.41993 625.35 1.11007 621.45 4.25007 622.63C54.3701 641.37 233.62 720.97 330.03 929.84C418.25 1120.95 448.83 1269.48 457.98 1325.19C459.79 1336.21 449.07 1345.1 438.58 1341.28C376.4 1318.64 205.62 1246.12 158.99 1118.67C103.26 966.38 111.99 742.88 0.910072 627.76Z" fill="#94DDD6"/>
<path opacity="0.5" d="M129.41 755.92C129.41 755.92 281.03 862.09 444.15 1323.33C444.15 1323.33 255.66 868.47 129.41 755.92Z" fill="#94DDD6"/>
</g>
<path d="M2235.91 486.482C2246.33 248.875 2046.86 47.1414 1790.38 35.8985C1533.9 24.6556 1317.54 208.16 1307.12 445.768C1296.71 683.376 1496.18 885.109 1752.66 896.352C2009.14 907.595 2225.5 724.09 2235.91 486.482Z" fill="#94DDD6"/>
<g style="mix-blend-mode:soft-light">
<path d="M1892.19 468.249C1892.12 506.279 1890.74 544.319 1887.77 582.249C1884.7 620.169 1879.98 657.979 1873.2 695.449C1866.25 732.869 1857.43 770.079 1844.1 805.929C1837.33 823.779 1829.49 841.389 1818.86 857.529C1813.46 865.519 1807.42 873.239 1799.85 879.589C1796.07 882.739 1791.92 885.559 1787.32 887.619C1782.73 889.669 1777.69 890.919 1772.59 891.029C1767.49 891.199 1762.38 890.199 1757.71 888.319C1753.02 886.449 1748.75 883.789 1744.88 880.729C1737.16 874.549 1730.88 866.989 1725.45 859.009C1714.6 842.989 1706.67 825.419 1699.84 807.589C1686.34 771.799 1677.48 734.589 1670.46 697.189C1656.74 622.259 1651.08 546.099 1650.39 470.029C1650.42 431.989 1652.12 393.959 1655 356.039C1657.95 318.119 1662.28 280.289 1668.66 242.769C1675.13 205.299 1683.37 167.979 1696.13 131.999C1702.63 114.089 1710.18 96.3991 1720.7 80.2891C1725.97 72.2791 1732.09 64.6691 1739.66 58.5291C1743.45 55.4891 1747.65 52.8691 1752.24 51.0591C1756.81 49.2291 1761.78 48.3091 1766.72 48.5291C1771.65 48.6991 1776.53 49.8491 1781.02 51.8191C1785.51 53.7891 1789.63 56.4691 1793.42 59.4991C1800.99 65.5991 1807.21 73.0691 1812.77 80.8691C1823.78 96.6091 1832.09 113.949 1839.3 131.589C1853.53 167.019 1863.17 204.019 1870.82 241.289C1878.3 278.619 1883.56 316.359 1887.05 354.249C1890.43 392.149 1892.06 430.199 1892.22 468.239L1892.19 468.249ZM1882.94 468.249C1883.04 430.459 1881.68 392.649 1878.58 354.979C1875.57 317.309 1871.01 279.739 1864.14 242.589C1857.23 205.479 1848.31 168.599 1834.88 133.339C1828.07 115.789 1820.18 98.5591 1809.7 82.9891C1804.42 75.2791 1798.5 67.9291 1791.38 61.9791C1784.34 56.0691 1775.79 51.5491 1766.62 51.2691C1757.44 50.9091 1748.71 55.1591 1741.69 61.0291C1734.62 66.9791 1728.82 74.4291 1723.83 82.3191C1713.87 98.1991 1706.72 115.769 1700.62 133.569C1688.66 169.349 1681.13 206.529 1675.38 243.859C1664.12 318.639 1660.64 394.439 1661.01 470.019C1660.73 545.569 1665.4 621.339 1678.07 695.839C1684.56 733.009 1692.89 770.009 1705.73 805.399C1712.23 823.019 1719.81 840.359 1730.07 855.909C1735.19 863.649 1741.1 870.899 1748.13 876.679C1755.12 882.379 1763.61 886.489 1772.45 886.149C1776.83 885.989 1781.16 884.869 1785.2 883.009C1789.24 881.129 1792.98 878.539 1796.43 875.579C1803.35 869.639 1809.05 862.209 1814.13 854.439C1824.18 838.749 1831.67 821.379 1838.09 803.729C1850.75 768.269 1859.02 731.269 1865.42 694.079C1871.79 656.849 1875.97 619.249 1878.77 581.559C1881.65 543.869 1882.94 506.059 1882.93 468.249H1882.94Z" fill="#94DDD6"/>
</g>
<g style="mix-blend-mode:soft-light">
<path d="M2084.06 468.25C2083.75 517.34 2077.39 566.45 2064.19 613.78C2050.72 660.99 2030.4 706.36 2002.93 747.08C1975.49 787.71 1940.56 823.72 1898.88 849.84C1878.06 862.85 1855.57 873.27 1832.03 880.33C1808.51 887.4 1783.95 891.08 1759.38 891.08C1734.81 891.12 1710.24 887.48 1686.7 880.43C1663.14 873.4 1640.62 863.02 1619.77 850.03C1578.01 823.96 1542.98 787.98 1515.44 747.34C1487.87 706.61 1467.49 661.21 1453.91 613.96C1447.25 590.29 1442.27 566.15 1438.99 541.78C1435.74 517.41 1434.1 492.84 1433.97 468.25C1434.12 443.67 1435.79 419.09 1439.06 394.73C1442.36 370.37 1447.38 346.24 1454.06 322.58C1467.69 275.36 1488.13 230.01 1515.72 189.35C1543.28 148.78 1578.3 112.86 1620.03 86.8996C1661.65 61.0196 1710.25 45.8496 1759.37 45.9596C1808.5 45.9196 1857.05 61.1496 1898.59 87.0896C1940.25 113.1 1975.16 149.05 2002.62 189.62C2030.12 230.27 2050.5 275.59 2064.02 322.77C2077.26 370.07 2083.67 419.16 2084.04 468.25H2084.06ZM2073.46 468.25C2073.46 420.07 2067.53 371.83 2054.89 325.3C2042.23 278.83 2023.17 233.92 1996.8 193.5C1970.47 153.19 1936.81 117.16 1896.15 90.9896C1875.78 78.0696 1853.79 67.6296 1830.7 60.5996C1807.62 53.5696 1783.53 49.8596 1759.39 49.7696C1735.25 49.8996 1711.17 53.6296 1688.11 60.6996C1665.04 67.7696 1643.08 78.2296 1622.75 91.1796C1582.17 117.4 1548.6 153.46 1522.37 193.77C1496.09 234.18 1477.09 279.06 1464.54 325.49C1458.26 348.73 1453.75 372.42 1450.68 396.27C1447.59 420.13 1446.08 444.19 1446.04 468.25C1446.1 492.32 1447.63 516.37 1450.75 540.22C1453.85 564.07 1458.39 587.75 1464.69 610.97C1477.3 657.37 1496.35 702.2 1522.66 742.54C1548.91 782.78 1582.46 818.78 1623.02 844.89C1643.34 857.78 1665.3 868.12 1688.3 875.18C1711.29 882.26 1735.31 886.02 1759.39 886.18C1783.48 886.06 1807.51 882.33 1830.52 875.28C1853.54 868.25 1875.53 857.93 1895.88 845.07C1936.51 819.01 1970.16 783.03 1996.51 742.79C2022.91 702.44 2042.03 657.57 2054.74 611.14C2067.43 564.64 2073.41 516.41 2073.47 468.24L2073.46 468.25Z" fill="#94DDD6"/>
</g>
<g style="mix-blend-mode:soft-light">
<path d="M1382.93 301.04C1415.22 300.44 1447.52 300.19 1479.81 299.75L1576.69 299.02C1608.98 298.71 1641.28 298.74 1673.57 298.65L1770.45 298.43L1867.33 298.67C1899.62 298.82 1931.92 298.74 1964.21 299.07L2061.09 299.87C2093.38 300.34 2125.68 300.62 2157.97 301.26C2158.23 301.26 2158.43 301.48 2158.43 301.74C2158.43 301.99 2158.22 302.19 2157.97 302.2C2125.68 302.84 2093.38 303.12 2061.09 303.59L1964.21 304.39C1931.92 304.73 1899.62 304.64 1867.33 304.79L1770.45 305.04L1673.57 304.82C1641.28 304.72 1608.98 304.76 1576.69 304.45L1479.81 303.72C1447.52 303.29 1415.22 303.03 1382.93 302.43C1382.55 302.43 1382.24 302.11 1382.25 301.72C1382.25 301.34 1382.56 301.04 1382.93 301.04Z" fill="#94DDD6"/>
</g>
<g style="mix-blend-mode:soft-light">
<path d="M1495.33 138.769C1518.26 138.169 1541.19 137.919 1564.11 137.479L1632.89 136.749C1678.75 136.259 1724.6 136.199 1770.46 136.149C1816.32 136.199 1862.17 136.309 1908.03 136.809L1976.81 137.609C1999.74 138.079 2022.67 138.359 2045.59 138.999C2045.85 138.999 2046.05 139.219 2046.04 139.479C2046.04 139.729 2045.83 139.929 2045.59 139.929C2022.66 140.569 1999.73 140.849 1976.81 141.319L1908.03 142.119C1862.17 142.619 1816.32 142.729 1770.46 142.779C1724.6 142.729 1678.75 142.669 1632.89 142.179L1564.11 141.449C1541.18 141.019 1518.25 140.759 1495.33 140.159C1494.95 140.149 1494.64 139.829 1494.65 139.449C1494.65 139.079 1494.96 138.779 1495.33 138.769Z" fill="#94DDD6"/>
</g>
<g style="mix-blend-mode:soft-light">
<path d="M1349.26 463.299C1384.36 462.699 1419.46 462.449 1454.56 462.009L1559.86 461.279C1594.96 460.969 1630.06 460.999 1665.16 460.909L1770.46 460.699L1875.76 460.939C1910.86 461.089 1945.96 461.009 1981.06 461.339L2086.36 462.139C2121.46 462.609 2156.56 462.889 2191.66 463.529C2191.92 463.529 2192.12 463.749 2192.12 464.009C2192.12 464.259 2191.91 464.459 2191.66 464.469C2156.56 465.109 2121.46 465.389 2086.36 465.859L1981.06 466.659C1945.96 466.999 1910.86 466.919 1875.76 467.059L1770.46 467.309L1665.16 467.089C1630.06 466.989 1594.96 467.029 1559.86 466.719L1454.56 465.989C1419.46 465.559 1384.36 465.299 1349.26 464.699C1348.88 464.699 1348.57 464.379 1348.58 463.989C1348.58 463.609 1348.89 463.309 1349.26 463.309V463.299Z" fill="#94DDD6"/>
</g>
<g style="mix-blend-mode:soft-light">
<path d="M1382.93 625.57C1415.22 624.97 1447.52 624.72 1479.81 624.28L1576.69 623.55C1608.98 623.24 1641.28 623.27 1673.57 623.18L1770.45 622.97L1867.33 623.21C1899.62 623.36 1931.92 623.28 1964.21 623.61L2061.09 624.41C2093.38 624.88 2125.68 625.16 2157.97 625.8C2158.23 625.8 2158.43 626.02 2158.43 626.28C2158.43 626.53 2158.22 626.73 2157.97 626.74C2125.68 627.38 2093.38 627.66 2061.09 628.13L1964.21 628.93C1931.92 629.27 1899.62 629.19 1867.33 629.33L1770.45 629.57L1673.57 629.36C1641.28 629.26 1608.98 629.3 1576.69 628.99L1479.81 628.26C1447.52 627.83 1415.22 627.57 1382.93 626.97C1382.55 626.97 1382.24 626.65 1382.25 626.26C1382.25 625.88 1382.56 625.58 1382.93 625.58V625.57Z" fill="#94DDD6"/>
</g>
<g style="mix-blend-mode:soft-light">
<path d="M2059.45 790.98H1509.19C1507.84 790.98 1506.75 789.89 1506.75 788.54C1506.75 787.19 1507.84 786.1 1509.19 786.1H2059.45C2060.8 786.1 2061.89 787.19 2061.89 788.54C2061.89 789.89 2060.8 790.98 2059.45 790.98Z" fill="#94DDD6"/>
</g>
<g opacity="0.4">
<path d="M1719.44 1346.5C1719.44 1346.5 1874.73 829.52 2142.47 557.01C2160.47 538.69 2190.57 547.68 2195.47 572.92C2228.29 741.69 2278.71 1251.05 1719.43 1346.5H1719.44Z" fill="#94DDD6"/>
<path d="M1772.14 1315.39C1770.82 1316.57 1772.32 1318.63 1773.78 1317.64C1827.55 1281 2038.23 1098.19 2137.23 717.18C2137.55 715.96 2135.82 715.39 2135.4 716.59C2104.55 804.5 1980.86 1128.14 1772.14 1315.4V1315.39Z" fill="#94DDD6"/>
</g>
<path d="M1939.3 1289.35C1939.3 1305.59 1926 1318.89 1909.74 1318.89H310.99C294.73 1318.89 281.43 1305.6 281.43 1289.35L268.13 370.6C268.13 354.36 287.27 322.64 322.35 325.02L1884.82 284.59C1905.22 284.06 1924.95 291.91 1939.4 306.32C1953.85 320.72 1961.75 340.41 1961.27 360.79L1939.31 1289.35H1939.3Z" fill="#51ACA6"/>
<path d="M1910.11 1261.02C1910.11 1276.4 1897.52 1288.99 1882.14 1288.99H349.54C334.16 1288.99 321.57 1276.4 321.57 1261.02L309.02 426.97C310.5 376.78 354.5 358.74 381.18 359.8L1878.67 319.62C1893 319.24 1906.86 324.76 1917.01 334.88C1927.16 345 1932.74 358.86 1932.38 373.2L1910.11 1261.01V1261.02Z" fill="#1AAA9C"/>
<path opacity="0.37" d="M338.14 862.939C336.91 862.939 335.9 861.949 335.88 860.709L334.89 793.069C334.87 791.819 335.87 790.799 337.12 790.779C338.3 790.739 339.39 791.759 339.41 793.009L340.4 860.649C340.42 861.899 339.42 862.919 338.17 862.939H338.14Z" fill="white"/>
<path opacity="0.37" d="M335.7 697.19C334.47 697.19 333.46 696.2 333.44 694.96L329.64 435.9C329.72 418.6 335.05 404.78 345.48 394.78C364.46 376.59 394.17 377.51 395.42 377.55L873.63 364.72C874.88 364.74 875.92 365.67 875.95 366.92C875.98 368.17 875 369.2 873.75 369.24L395.41 382.07C394.07 382.01 366.22 381.17 348.6 398.04C339.08 407.16 334.22 419.89 334.15 435.88L337.95 694.9C337.97 696.15 336.97 697.18 335.72 697.19H335.69H335.7Z" fill="white"/>
<path d="M389.09 1214.75C390.69 1145.81 390.1 535.37 386.14 482.65C382.18 429.93 464.29 420.04 590.35 414.11C716.41 408.18 1780.04 384.69 1807.43 382.47C1868.99 377.48 1881.73 469.49 1875.57 669.24C1870.94 819.31 1863.27 1066.52 1859.75 1180.21C1858.7 1214.06 1831.03 1240.92 1797.16 1241.01C1541.21 1241.71 560.21 1244.53 494.91 1246.47C419.76 1248.71 388.45 1242.09 389.08 1214.76L389.09 1214.75Z" fill="#94DDD6"/>
<path d="M2061.49 1285.06H191.65C187.502 1285.06 184.14 1288.42 184.14 1292.57V1358.28C184.14 1362.43 187.502 1365.79 191.65 1365.79H2061.49C2065.64 1365.79 2069 1362.43 2069 1358.28V1292.57C2069 1288.42 2065.64 1285.06 2061.49 1285.06Z" fill="#51ACA6"/>
<path d="M1632.51 853.16C1637.58 857.09 1776.81 847 1835.3 859.11C1835.3 859.11 1880.64 661.3 1750.46 653.53C1620.28 645.76 1575.15 726.09 1575.15 726.09L1632.51 853.16Z" fill="#30998C"/>
<path d="M1495.02 644.2L1750.46 653.52C1750.46 653.52 1657.38 654.8 1667.68 772.52C1677.99 890.24 1730.44 1234 1597.23 1234.34C1464.02 1234.68 1461.89 1173.84 1461.89 1173.84L1495.02 644.21V644.2Z" fill="#AFDBD6"/>
<path d="M1375.72 588.97L1474.46 565.98C1474.46 565.98 1540.48 560.05 1549.41 618.72C1558.34 677.4 1555.75 1025.04 1552.96 1096.74C1550.17 1168.44 1556.89 1223.58 1597.24 1234.34L1303.71 1239.42L1375.73 588.97H1375.72Z" fill="#30998C"/>
<path d="M1174.99 593.74C1174.99 593.74 1354.78 603.62 1474.46 565.98C1474.46 565.98 1394.9 560.53 1394.9 744.22C1394.9 884.67 1415.73 1152.73 1397.54 1203.62C1379.35 1254.51 1311.35 1322.91 1213.87 1264.12C1116.39 1205.33 1174.99 593.73 1174.99 593.73V593.74Z" fill="#AFDBD6"/>
<path d="M1127.19 318.34C1127.19 318.34 1325.56 339.96 1351.11 306.34C1351.11 306.34 1330.78 245.83 1270.41 249.85C1210.04 253.88 1127.18 318.34 1127.18 318.34H1127.19Z" fill="#AFDBD6"/>
<path d="M482.02 386.42C499.32 580.82 535.65 992.01 551.46 1192.31C554.98 1236.96 590.78 1272.23 635.48 1275.1C794.71 1285.32 1153.06 1305.15 1290.58 1286.7C1259.08 1271.17 1239.24 1238.98 1239.53 1203.86L1246.83 305.06C1247.09 273.3 1278.72 250.48 1308.46 261.62C1327.2 268.64 1341.38 283.6 1351.12 306.33C1338.14 268.49 1317.72 240.81 1270.42 249.84C1270.42 249.84 807.88 254.46 583.42 268.38C522.43 272.16 476.61 325.54 482.02 386.41V386.42Z" fill="#30998C"/>
<path d="M596.44 294.12L1217.96 270.19C1192.33 459.97 1203.14 846.44 1212.93 1227.31C1213.51 1249.89 1226.75 1270.21 1247.17 1279.86C1247.17 1279.86 832.62 1284.64 654.5 1272C612.56 1269.03 576.72 1237.5 572.12 1195.71C552.86 1020.96 508.86 619.96 505.86 389.96C505.19 338.78 545.3 296.08 596.44 294.11V294.12Z" fill="#AFDBD6"/>
<path d="M589.609 564.881L596.859 634.501C598.189 647.261 608.7 657.101 621.52 657.601L662.049 659.161C676.669 659.721 688.829 648.021 688.829 633.391V558.291C688.829 543.221 675.949 531.361 660.929 532.591L613.139 536.521C598.729 537.701 588.109 550.511 589.599 564.891L589.609 564.881Z" fill="url(#paint0_linear_270_7)"/>
<path d="M732.14 543.42C799.6 541.32 1058.57 532.9 1123.96 530.78C1132.21 530.51 1139.03 537.13 1139.03 545.38C1139.03 553.24 1132.82 559.68 1124.97 559.98L733.4 574.52C725.86 574.8 719.34 569.29 718.37 561.8L718.12 559.91C717.01 551.35 723.51 543.7 732.14 543.43V543.42Z" fill="url(#paint1_linear_270_7)"/>
<path d="M727.9 635.201C729.05 637.121 731.13 638.281 733.37 638.231L1002.24 632.391C1005.62 632.321 1008.32 629.561 1008.32 626.181V608.451C1008.32 604.931 1005.39 602.111 1001.88 602.241L740.5 612.011C728.86 612.451 721.93 625.191 727.9 635.191V635.201Z" fill="url(#paint2_linear_270_7)"/>
<path d="M589.609 758.09L596.859 827.71C598.189 840.47 608.7 850.31 621.52 850.81L662.049 852.37C676.669 852.93 688.829 841.23 688.829 826.6V751.5C688.829 736.43 675.949 724.56 660.929 725.8L613.139 729.73C598.729 730.91 588.109 743.72 589.599 758.1L589.609 758.09Z" fill="url(#paint3_linear_270_7)"/>
<path d="M732.14 736.64C799.6 734.54 1058.57 726.12 1123.96 724C1132.21 723.73 1139.03 730.35 1139.03 738.6C1139.03 746.46 1132.82 752.9 1124.97 753.2L733.4 767.74C725.86 768.02 719.34 762.51 718.37 755.02L718.12 753.13C717.01 744.57 723.51 736.92 732.14 736.65V736.64Z" fill="url(#paint4_linear_270_7)"/>
<path d="M727.9 828.411C729.05 830.331 731.13 831.491 733.37 831.441L1002.24 825.601C1005.62 825.531 1008.32 822.771 1008.32 819.391V801.661C1008.32 798.141 1005.39 795.321 1001.88 795.451L740.5 805.221C728.86 805.661 721.93 818.401 727.9 828.401V828.411Z" fill="url(#paint5_linear_270_7)"/>
<path d="M589.609 951.311L596.859 1020.93C598.189 1033.69 608.7 1043.53 621.52 1044.03L662.049 1045.58C676.669 1046.14 688.829 1034.44 688.829 1019.81V944.711C688.829 929.641 675.949 917.781 660.929 919.011L613.139 922.941C598.729 924.121 588.109 936.931 589.599 951.311H589.609Z" fill="url(#paint6_linear_270_7)"/>
<path d="M732.14 929.85C799.6 927.75 1058.57 919.33 1123.96 917.21C1132.21 916.94 1139.03 923.56 1139.03 931.81C1139.03 939.67 1132.82 946.11 1124.97 946.41L733.4 960.95C725.86 961.23 719.34 955.72 718.37 948.23L718.12 946.34C717.01 937.78 723.51 930.13 732.14 929.86V929.85Z" fill="url(#paint7_linear_270_7)"/>
<path d="M727.9 1021.63C729.05 1023.55 731.13 1024.71 733.37 1024.66L1002.24 1018.82C1005.62 1018.75 1008.32 1015.99 1008.32 1012.61V994.88C1008.32 991.36 1005.39 988.54 1001.88 988.67L740.5 998.44C728.86 998.88 721.93 1011.62 727.9 1021.62V1021.63Z" fill="url(#paint8_linear_270_7)"/>
<g style="mix-blend-mode:soft-light">
<path d="M1371.55 995.29C1369.91 995.29 1368.56 993.97 1368.53 992.32C1368.53 992.23 1368.34 982.69 1367.43 950.03C1367.38 948.36 1368.7 946.97 1370.37 946.92C1372 946.84 1373.43 948.19 1373.48 949.86C1374.4 982.57 1374.58 992.12 1374.59 992.21C1374.62 993.88 1373.29 995.26 1371.62 995.29H1371.56H1371.55Z" fill="white"/>
</g>
<g style="mix-blend-mode:soft-light">
<path d="M1369.35 915.55C1367.72 915.55 1366.38 914.26 1366.33 912.62C1365.68 891.35 1364.67 867.85 1363.59 842.96C1362.14 809.33 1360.64 774.56 1359.85 741.06C1357.76 652.65 1372.34 618.72 1384.95 605.81C1391.8 598.8 1397.54 598.59 1398.17 598.59C1399.84 598.59 1401.2 599.95 1401.2 601.62C1401.2 603.29 1399.88 604.61 1398.23 604.65C1397.54 604.7 1362.78 608.52 1365.91 740.92C1366.7 774.36 1368.2 809.1 1369.65 842.7C1370.72 867.61 1371.74 891.14 1372.39 912.44C1372.44 914.11 1371.13 915.51 1369.46 915.56C1369.43 915.56 1369.4 915.56 1369.37 915.56L1369.35 915.55Z" fill="white"/>
</g>
<g style="mix-blend-mode:soft-light">
<path d="M1657.14 905.64C1655.55 905.64 1654.22 904.4 1654.12 902.8C1654.07 902 1649.26 822.31 1640.63 755.98C1631.68 687.16 1669.34 672.65 1670.95 672.06C1672.53 671.49 1674.26 672.3 1674.83 673.87C1675.4 675.44 1674.59 677.17 1673.03 677.74C1671.61 678.27 1638.35 691.48 1646.63 755.19C1655.28 821.73 1660.11 901.63 1660.16 902.43C1660.26 904.1 1658.99 905.53 1657.32 905.63C1657.26 905.63 1657.2 905.63 1657.14 905.63V905.64Z" fill="white"/>
</g>
<path d="M682.669 369.46C678.479 369.62 675.269 372.2 673.039 377.2C670.809 382.2 669.859 389.07 670.189 397.81C670.879 416.01 675.969 424.93 685.459 424.57C689.619 424.41 693.919 422.92 698.369 420.1L698.859 433.1C695.119 435.79 690.259 437.25 684.279 437.47C675.429 437.81 668.499 434.54 663.489 427.68C658.479 420.82 655.729 411.02 655.249 398.26C654.769 385.51 656.839 375.47 661.459 368.16C666.079 360.85 672.739 357.02 681.449 356.7C684.319 356.59 687.079 356.88 689.739 357.57C692.399 358.26 695.279 359.53 698.359 361.39L693.969 373.45C692.319 372.4 690.559 371.45 688.699 370.61C686.839 369.77 684.829 369.38 682.679 369.47L682.669 369.46Z" fill="#0F302C"/>
<path d="M762.639 393.98C763.129 406.98 761.069 417.07 756.469 424.24C751.859 431.41 745.029 435.17 735.969 435.51C726.869 435.85 719.749 432.64 714.619 425.85C709.479 419.07 706.669 409.12 706.169 396.01C705.679 383.01 707.739 372.95 712.349 365.83C716.959 358.71 723.849 354.98 733.019 354.64C742.079 354.3 749.159 357.52 754.259 364.3C759.359 371.08 762.159 380.98 762.649 393.98H762.639ZM721.109 395.55C721.449 404.51 722.839 411.29 725.269 415.89C727.699 420.5 731.109 422.72 735.479 422.55C744.289 422.22 748.349 412.88 747.659 394.54C746.969 376.2 742.249 367.19 733.509 367.53C729.069 367.7 725.809 370.16 723.729 374.92C721.649 379.68 720.779 386.56 721.119 395.55H721.109Z" fill="#0F302C"/>
<path d="M830.599 430.85L812.759 431.53L786.319 375.55L785.619 375.58C786.679 379.88 787.299 384.52 787.489 389.5L789.119 432.43L775.579 432.94L772.609 354.38L790.559 353.7L816.759 409.1L817.349 409.08C816.529 405.34 816.019 400.88 815.819 395.69L814.199 352.81L827.629 352.3L830.599 430.86V430.85Z" fill="#0F302C"/>
<path d="M868.59 429.41L854.03 429.96L851.54 364.25L836.5 364.82L836.01 351.98L880.66 350.29L881.15 363.13L866.11 363.7L868.6 429.41H868.59Z" fill="#0F302C"/>
<path d="M905.469 397.4L906.629 427.97L892.009 428.52L889.039 349.96L908.169 349.24C916.259 348.93 922.309 350.62 926.309 354.31C930.309 358 932.449 363.78 932.749 371.66C933.129 381.58 930.039 388.64 923.489 392.83L939.889 426.7L924.249 427.29L910.679 397.19L905.469 397.39V397.4ZM904.989 384.82L908.749 384.68C912.189 384.55 914.619 383.48 916.049 381.47C917.479 379.46 918.119 376.52 917.979 372.65C917.829 368.64 916.919 365.81 915.259 364.17C913.599 362.53 911.109 361.77 907.779 361.9L904.129 362.04L904.989 384.82Z" fill="#0F302C"/>
<path d="M984.219 425.03L978.959 405.37L958.489 406.15L954.729 426.15L940.109 426.7L956.569 347.09L976.399 346.34L998.889 424.48L984.219 425.04V425.03ZM975.719 392.53L970.839 374.42C970.549 373.32 969.879 370.56 968.829 366.13C967.779 361.7 967.139 358.74 966.909 357.24C966.559 360.34 966.099 363.75 965.519 367.49C964.939 371.22 963.399 379.76 960.889 393.09L975.719 392.53Z" fill="#0F302C"/>
<path d="M1029.34 356.33C1025.15 356.49 1021.94 359.07 1019.71 364.07C1017.48 369.07 1016.53 375.94 1016.86 384.68C1017.55 402.88 1022.64 411.8 1032.13 411.44C1036.29 411.28 1040.59 409.79 1045.04 406.97L1045.53 419.97C1041.79 422.66 1036.93 424.12 1030.95 424.34C1022.1 424.68 1015.17 421.41 1010.16 414.55C1005.15 407.69 1002.4 397.89 1001.92 385.13C1001.44 372.38 1003.51 362.34 1008.13 355.03C1012.75 347.72 1019.41 343.89 1028.12 343.57C1030.99 343.46 1033.75 343.75 1036.41 344.44C1039.07 345.13 1041.95 346.4 1045.03 348.26L1040.64 360.32C1038.99 359.27 1037.23 358.32 1035.37 357.48C1033.51 356.64 1031.5 356.25 1029.35 356.34L1029.34 356.33Z" fill="#0F302C"/>
<path d="M1080.88 421.37L1066.32 421.92L1063.83 356.21L1048.79 356.78L1048.3 343.94L1092.95 342.25L1093.44 355.09L1078.4 355.66L1080.89 421.37H1080.88Z" fill="#0F302C"/>
<path d="M930.87 1241C927.96 1241 925.03 1239.6 921.9 1236.73C909.77 1225.59 906.91 1208.2 906.19 1191.88C900.38 1198.42 894.41 1204.78 888.52 1211.06L886.33 1209.01C892.92 1201.99 899.6 1194.87 906.04 1187.51C905.5 1165.54 906.51 1143.33 909.04 1121.5C910.58 1108.19 912.8 1094.11 918.56 1081.29C920.38 1077.24 923.39 1071.45 928.53 1067.85C933.82 1064.15 940.75 1063.73 945.37 1066.83C950.59 1070.34 952.01 1077.07 952.62 1081.83C956.28 1110.33 945.15 1136.46 935.17 1153.37C927.71 1166.01 918.66 1177.59 909.07 1188.6C909.55 1205.18 911.81 1223.39 923.92 1234.52C926.55 1236.94 928.9 1238.07 931.08 1237.99C934.7 1237.86 937.53 1234.48 939.83 1231.19C949.92 1216.74 957.77 1201.06 963.25 1184.43C963.88 1179.49 965.25 1174.65 967.35 1170.13L970.17 1171.12C969.02 1175.85 967.69 1180.51 966.19 1185.1C965.62 1189.87 965.79 1194.73 966.73 1199.45C967.24 1202.01 969.41 1210.45 975.79 1211.67C980.6 1212.58 985.34 1209.2 990.72 1201.03L1009.98 1171.76L1008.08 1179.93C1007.1 1184.14 1005.49 1194.21 1011.59 1196.72C1015.09 1198.16 1018.79 1196.08 1022.7 1193.87C1026.54 1191.71 1030.51 1189.47 1034.91 1190.06L1036.46 1190.27L1036.19 1191.81C1035.18 1197.65 1035.68 1204.83 1040.38 1205.87C1043.46 1206.55 1045.99 1204.21 1048.92 1201.5C1051.42 1199.19 1054.01 1196.8 1057.33 1195.99L1058.03 1198.91C1055.46 1199.53 1053.17 1201.65 1050.95 1203.7C1047.7 1206.71 1044.33 1209.82 1039.72 1208.8C1033.47 1207.42 1032.12 1200.01 1032.97 1192.99C1030.07 1193.16 1027.19 1194.79 1024.15 1196.49C1019.78 1198.95 1015.27 1201.5 1010.42 1199.5C1005.98 1197.67 1003.81 1192.91 1004.14 1186.06L993.21 1202.68C989.35 1208.54 983.29 1216.16 975.21 1214.62C969.66 1213.56 965.39 1208.11 963.77 1200.04C963.38 1198.07 963.11 1196.08 962.96 1194.08C957.67 1207.77 950.74 1220.77 942.26 1232.91C939.54 1236.81 936.09 1240.81 931.16 1240.99C931.05 1240.99 930.94 1240.99 930.83 1240.99L930.87 1241ZM938.14 1067.74C935.5 1067.74 932.68 1068.61 930.26 1070.31C925.72 1073.48 922.98 1078.8 921.3 1082.52C915.71 1094.97 913.54 1108.78 912.02 1121.85C909.63 1142.45 908.61 1163.38 908.97 1184.13C917.65 1173.98 925.8 1163.35 932.59 1151.85C942.33 1135.35 953.2 1109.87 949.65 1082.21C948.8 1075.57 946.91 1071.47 943.71 1069.32C942.13 1068.26 940.19 1067.74 938.14 1067.74Z" fill="#0D4F47"/>
<path d="M1506.25 1488.34C1515.43 1489.13 1531.35 1490.42 1543.9 1490.97C1551.45 1491.3 1555.79 1490.56 1558.29 1489.56C1558.29 1489.84 1558.28 1490.11 1558.27 1490.36C1558.21 1491.68 1557.14 1492.74 1555.8 1492.81C1532.08 1494.13 1513.21 1493.27 1506.5 1492.86C1505.11 1492.78 1504.28 1491.27 1504.99 1490.08C1505.35 1489.49 1505.78 1488.91 1506.24 1488.33L1506.25 1488.34Z" fill="#278279"/>
<path d="M1543.9 1490.97C1531.35 1490.42 1515.42 1489.13 1506.25 1488.34C1515.27 1477.27 1543.9 1469.81 1543.9 1469.81H1551.99C1557.55 1477.83 1558.36 1485.46 1558.3 1489.56C1555.8 1490.56 1551.45 1491.3 1543.91 1490.97H1543.9Z" fill="#16443D"/>
<path d="M1553.35 1456.61L1552.59 1471.59C1552.51 1473.21 1551.29 1474.57 1549.67 1474.81C1548.05 1475.04 1545.89 1475.07 1543.6 1474.31C1542.19 1473.84 1541.14 1472.65 1540.88 1471.2L1538.27 1456.62H1553.36L1553.35 1456.61Z" fill="url(#paint9_linear_270_7)"/>
<path d="M1658.39 1490.86C1662.37 1490.31 1664.17 1488.24 1664.92 1486.03C1664.92 1486.05 1664.92 1486.07 1664.93 1486.09C1665.52 1488.42 1664.16 1490.84 1661.45 1491.99C1658.17 1493.38 1654.58 1493.62 1651.8 1493.5C1648.81 1493.38 1646.07 1492.14 1644.57 1490.16L1644.55 1490.13C1647.55 1491.61 1651.76 1491.79 1658.39 1490.86Z" fill="#16443D"/>
<path d="M1639.63 1456.51H1646.3C1656.46 1456.3 1662.84 1477.73 1664.93 1486.03C1664.18 1488.24 1662.37 1490.31 1658.4 1490.86C1651.76 1491.79 1647.56 1491.61 1644.56 1490.13C1639.07 1482.91 1636.35 1472.33 1635.04 1466.16C1633.55 1459.14 1639.64 1456.52 1639.64 1456.52L1639.63 1456.51Z" fill="#16443D"/>
<path d="M1645.44 1442.61L1649.14 1457.34C1649.59 1459.15 1648.73 1461.01 1647.06 1461.87C1644.99 1462.93 1642.07 1464.05 1639.39 1463.73C1638.13 1463.58 1637.08 1462.69 1636.67 1461.5L1631.23 1446L1645.44 1442.61Z" fill="url(#paint10_linear_270_7)"/>
<path d="M1649.86 1446.87C1645.25 1450.96 1630.27 1451.5 1630.27 1451.5C1576.29 1321.93 1554.2 1303.53 1554.2 1303.53C1561.99 1352.43 1555.46 1460.7 1555.46 1460.7C1546.55 1464.63 1535.07 1460.7 1535.07 1460.7C1534.35 1380.64 1522.04 1310.81 1507.5 1255.77C1543.99 1254.95 1563.39 1242.46 1569.73 1237.45C1600.14 1286.48 1649.87 1446.87 1649.87 1446.87H1649.86Z" fill="#16443D"/>
<path d="M1560.46 1088.45C1567.37 1122.9 1564.89 1184.55 1563.27 1212.68C1562.81 1220.58 1568.33 1231.54 1572.79 1239.02C1573.49 1240.19 1573.06 1241.69 1571.84 1242.32C1564.37 1246.16 1539.08 1258.05 1509.76 1259.53C1507.81 1259.63 1506.06 1258.3 1505.55 1256.41C1483.8 1175.21 1458.54 1123.32 1458.54 1123.32C1486.43 1078.79 1560.46 1088.46 1560.46 1088.46V1088.45Z" fill="#21685F"/>
<path d="M1550.52 1300.46C1550.83 1300.46 1551.14 1300.38 1551.42 1300.21C1552.23 1299.71 1552.49 1298.65 1552 1297.84C1551.71 1297.36 1544.73 1286.08 1530.6 1279.26C1529.74 1278.85 1528.71 1279.2 1528.29 1280.07C1527.88 1280.93 1528.24 1281.96 1529.1 1282.38C1542.27 1288.74 1548.99 1299.54 1549.05 1299.65C1549.38 1300.18 1549.94 1300.48 1550.53 1300.48L1550.52 1300.46Z" fill="url(#paint11_linear_270_7)"/>
<path d="M1603.77 1187.31C1601.55 1203.36 1595 1220.86 1581.89 1239.45L1576.91 1235.39C1576.91 1235.39 1582.66 1212.05 1579.39 1185.55C1587.48 1183.97 1597.03 1185.6 1603.77 1187.3V1187.31Z" fill="#21685F"/>
<path d="M1552.74 1130.95L1560.45 1088.45C1560.45 1088.45 1611.99 1127.85 1603.77 1187.31C1597.03 1185.6 1587.47 1183.98 1579.39 1185.56C1577.03 1166.48 1570 1145.76 1552.74 1130.95Z" fill="#21685F"/>
<path d="M1458.54 1123.3L1478.43 1166.14C1475.21 1192.01 1461.32 1203.19 1446.34 1207.48C1445.41 1195.69 1442.42 1186.17 1439.66 1179.58C1458.8 1159.82 1458.54 1123.3 1458.54 1123.3Z" fill="#21685F"/>
<path d="M1439.66 1179.59C1442.43 1186.18 1445.41 1195.7 1446.34 1207.49C1406.37 1223 1395.79 1192.92 1395.79 1192.92L1403.18 1191.62C1419.86 1193.38 1431.52 1188 1439.66 1179.59Z" fill="url(#paint12_linear_270_7)"/>
<path d="M1476.87 1070.41L1486.47 1105.72C1487.55 1109.69 1491.84 1111.82 1495.66 1110.29C1499.78 1108.64 1505 1106.4 1509.5 1103.97C1514.3 1101.38 1515.8 1095.2 1512.76 1090.67L1492.79 1060.9L1476.86 1070.42L1476.87 1070.41Z" fill="url(#paint13_linear_270_7)"/>
<path d="M1455.86 1043.59C1455.77 1044.2 1463.87 1083.88 1463.87 1083.88L1486.43 1078.77L1484.34 1040.02C1484.34 1040.02 1457.32 1033.44 1455.86 1043.59Z" fill="url(#paint14_linear_270_7)"/>
<path d="M1479.27 1048.65L1481.97 1068.96C1482 1069.22 1482 1069.48 1481.97 1069.74C1481.74 1071.33 1480.56 1076.75 1475.09 1075.2C1470.12 1073.79 1465.57 1072.58 1462.43 1073.55C1461.02 1073.98 1460.17 1075.41 1460.46 1076.86C1461.2 1080.47 1463.01 1088.56 1465.65 1095.35C1466.19 1096.73 1467.7 1097.45 1469.12 1097.04C1473.4 1095.79 1482.35 1092.91 1489.01 1088.9C1489.91 1088.36 1490.45 1087.38 1490.41 1086.32C1490.19 1081.19 1489.59 1065.6 1490.1 1061.23C1490.57 1057.13 1495.61 1054.67 1497.79 1053.79C1498.51 1053.5 1499.07 1052.94 1499.36 1052.22C1500.37 1049.68 1501.77 1043.81 1494.37 1041.4C1492.82 1040.9 1492 1039.23 1492.56 1037.69C1493.66 1034.64 1494.12 1029.98 1488.39 1027.42C1482.57 1024.81 1478.22 1027.91 1475.88 1030.44C1474.93 1031.46 1473.41 1031.61 1472.23 1030.87C1471.56 1030.45 1470.7 1030.31 1469.65 1030.96C1468.24 1031.84 1466.38 1031.24 1465.66 1029.75C1464.27 1026.89 1461.43 1023.83 1455.73 1024.8C1445.62 1026.53 1444.48 1037.73 1447.14 1044.3C1449.81 1050.86 1460.66 1048.36 1466.11 1045.06C1470.25 1042.54 1475.62 1045.18 1477.96 1046.59C1478.7 1047.04 1479.19 1047.8 1479.3 1048.65H1479.27Z" fill="#0F302C"/>
<path d="M1490.98 1068.65C1490.98 1068.65 1486.82 1057.01 1491.09 1054.16C1495.36 1051.31 1501.68 1052.79 1500.29 1061.22C1498.56 1071.71 1490.97 1068.65 1490.97 1068.65H1490.98Z" fill="url(#paint15_linear_270_7)"/>
<path d="M1398.75 1198.42C1396.74 1199.99 1389.84 1196.71 1385.63 1194.44C1383.57 1193.33 1382.58 1190.93 1383.28 1188.71C1384.3 1185.51 1385.99 1181.38 1388.07 1180.86C1391.53 1180 1407.04 1191.95 1398.75 1198.43V1198.42Z" fill="url(#paint16_linear_270_7)"/>
<path d="M1738.16 1295.64L1211.78 1108.43L1183.93 1185.79L1710.13 1378.23C1721.31 1382.32 1733.78 1377.78 1739.77 1367.5C1745.92 1356.94 1751.8 1340.43 1752.15 1315.71C1752.28 1306.72 1746.63 1298.65 1738.16 1295.64Z" fill="#0D4F47"/>
<path d="M1048.93 1088.44L1121.64 1097.37C1121.56 1107.38 1118.29 1120.32 1107.19 1135.18L1046.47 1095.12C1043.25 1092.99 1045.09 1087.97 1048.93 1088.44Z" fill="#0F302C"/>
<path d="M1211.78 1108.43C1215.11 1156.91 1183.93 1185.79 1183.93 1185.79L1107.2 1135.17C1118.29 1120.32 1121.57 1107.37 1121.65 1097.36L1211.79 1108.43H1211.78Z" fill="url(#paint17_linear_270_7)"/>
<path opacity="0.5" d="M1731.63 1319.36C1732.27 1319.36 1732.86 1318.96 1733.09 1318.33C1733.38 1317.52 1732.95 1316.64 1732.15 1316.36L1228.54 1138.38C1227.73 1138.1 1226.85 1138.52 1226.57 1139.32C1226.28 1140.13 1226.71 1141.01 1227.51 1141.29L1731.12 1319.27C1731.29 1319.33 1731.46 1319.36 1731.64 1319.36H1731.63Z" fill="#94DDD6"/>
<path opacity="0.5" d="M1722.95 1349.71C1723.59 1349.71 1724.18 1349.31 1724.41 1348.68C1724.7 1347.87 1724.27 1346.99 1723.47 1346.71L1219.86 1168.73C1219.05 1168.45 1218.17 1168.87 1217.89 1169.67C1217.6 1170.48 1218.03 1171.36 1218.83 1171.64L1722.44 1349.62C1722.61 1349.68 1722.78 1349.71 1722.96 1349.71H1722.95Z" fill="#AFDBD6"/>
<path d="M1578.96 1234.68L1555.7 1232.78L1545.62 1242.07C1545.62 1242.07 1548 1245.36 1555.46 1243.47C1562.91 1241.58 1573.12 1241.11 1573.12 1241.11C1573.12 1241.11 1583.41 1245.75 1583.53 1237.07L1578.96 1234.68Z" fill="url(#paint18_linear_270_7)"/>
<defs>
<linearGradient id="paint0_linear_270_7" x1="589.469" y1="595.831" x2="688.829" y2="595.831" gradientUnits="userSpaceOnUse">
<stop stop-color="#EDF2FE"/>
<stop offset="1" stop-color="#F4F7FE"/>
</linearGradient>
<linearGradient id="paint1_linear_270_7" x1="718" y1="552.64" x2="1139.03" y2="552.64" gradientUnits="userSpaceOnUse">
<stop stop-color="#EDF2FE"/>
<stop offset="1" stop-color="#F4F7FE"/>
</linearGradient>
<linearGradient id="paint2_linear_270_7" x1="725.72" y1="620.231" x2="1008.32" y2="620.231" gradientUnits="userSpaceOnUse">
<stop stop-color="#EDF2FE"/>
<stop offset="1" stop-color="#F4F7FE"/>
</linearGradient>
<linearGradient id="paint3_linear_270_7" x1="-0.000775604" y1="789.04" x2="0.999225" y2="789.04" gradientUnits="userSpaceOnUse">
<stop stop-color="#EDF2FE"/>
<stop offset="1" stop-color="#F4F7FE"/>
</linearGradient>
<linearGradient id="paint4_linear_270_7" x1="718" y1="745.86" x2="1139.03" y2="745.86" gradientUnits="userSpaceOnUse">
<stop stop-color="#EDF2FE"/>
<stop offset="1" stop-color="#F4F7FE"/>
</linearGradient>
<linearGradient id="paint5_linear_270_7" x1="725.72" y1="813.451" x2="1008.32" y2="813.451" gradientUnits="userSpaceOnUse">
<stop stop-color="#EDF2FE"/>
<stop offset="1" stop-color="#F4F7FE"/>
</linearGradient>
<linearGradient id="paint6_linear_270_7" x1="-0.000775604" y1="982.261" x2="0.999225" y2="982.261" gradientUnits="userSpaceOnUse">
<stop stop-color="#EDF2FE"/>
<stop offset="1" stop-color="#F4F7FE"/>
</linearGradient>
<linearGradient id="paint7_linear_270_7" x1="718" y1="939.07" x2="1139.03" y2="939.07" gradientUnits="userSpaceOnUse">
<stop stop-color="#EDF2FE"/>
<stop offset="1" stop-color="#F4F7FE"/>
</linearGradient>
<linearGradient id="paint8_linear_270_7" x1="725.72" y1="1006.66" x2="1008.32" y2="1006.66" gradientUnits="userSpaceOnUse">
<stop stop-color="#EDF2FE"/>
<stop offset="1" stop-color="#F4F7FE"/>
</linearGradient>
<linearGradient id="paint9_linear_270_7" x1="1553.35" y1="1465.78" x2="1538.27" y2="1465.78" gradientUnits="userSpaceOnUse">
<stop stop-color="#FEB0A9"/>
<stop offset="1" stop-color="#FFC7C2"/>
</linearGradient>
<linearGradient id="paint10_linear_270_7" x1="1649.27" y1="1453.2" x2="1631.24" y2="1453.2" gradientUnits="userSpaceOnUse">
<stop stop-color="#FEB0A9"/>
<stop offset="1" stop-color="#FFC7C2"/>
</linearGradient>
<linearGradient id="paint11_linear_270_7" x1="1588.51" y1="1386.43" x2="1579.87" y2="1369.15" gradientUnits="userSpaceOnUse">
<stop stop-color="#53D8FF"/>
<stop offset="1" stop-color="#5A52B0"/>
</linearGradient>
<linearGradient id="paint12_linear_270_7" x1="1446.34" y1="1195.76" x2="1395.79" y2="1195.76" gradientUnits="userSpaceOnUse">
<stop stop-color="#FEB0A9"/>
<stop offset="1" stop-color="#FFC7C2"/>
</linearGradient>
<linearGradient id="paint13_linear_270_7" x1="1495.47" y1="1060.67" x2="1496.02" y2="1155.07" gradientUnits="userSpaceOnUse">
<stop stop-color="#FEB0A9"/>
<stop offset="1" stop-color="#FFC7C2"/>
</linearGradient>
<linearGradient id="paint14_linear_270_7" x1="1464.72" y1="1045.29" x2="1501.94" y2="1112.77" gradientUnits="userSpaceOnUse">
<stop stop-color="#FEB0A9"/>
<stop offset="1" stop-color="#FFC7C2"/>
</linearGradient>
<linearGradient id="paint15_linear_270_7" x1="1525.12" y1="1103.19" x2="1493.69" y2="1060.02" gradientUnits="userSpaceOnUse">
<stop stop-color="#FEB0A9"/>
<stop offset="1" stop-color="#FFC7C2"/>
</linearGradient>
<linearGradient id="paint16_linear_270_7" x1="1401.16" y1="1189.82" x2="1383.06" y2="1189.82" gradientUnits="userSpaceOnUse">
<stop stop-color="#F9B776"/>
<stop offset="1" stop-color="#FE988E"/>
</linearGradient>
<linearGradient id="paint17_linear_270_7" x1="1084.74" y1="1044.98" x2="1457.09" y2="1427.65" gradientUnits="userSpaceOnUse">
<stop stop-color="#FEB0A9"/>
<stop offset="1" stop-color="#FFC7C2"/>
</linearGradient>
<linearGradient id="paint18_linear_270_7" x1="2252.28" y1="2472.69" x2="2194.28" y2="2368.69" gradientUnits="userSpaceOnUse">
<stop stop-color="#FEB0A9"/>
<stop offset="1" stop-color="#FFC7C2"/>
</linearGradient>
</defs>
</svg>
